<svg width="462" height="121" viewBox="0 0 462 121" fill="none" xmlns="http://www.w3.org/2000/svg">
<path d="M0 56.4491V98.7245C0 107.161 6.83904 114 15.2754 114H17.0955C24.5267 114 30.5509 107.976 30.5509 100.544C30.5509 88.1958 45.7936 82.3691 54.0307 91.5691L67.878 107.035C71.8463 111.467 77.514 114 83.463 114C95.0163 114 104.382 104.634 104.382 93.0808V50.2135C104.382 41.9654 97.7776 35.2363 89.531 35.0821L87.9446 35.0525C80.3484 34.9105 74.1142 41.0293 74.1142 48.6268C74.1142 61.106 58.694 66.975 50.3966 57.6539L36.8418 42.4268C32.84 37.9312 27.1081 35.3597 21.0894 35.3597C9.44205 35.3597 0 44.8018 0 56.4491Z" fill="url(#paint0_linear)"/>
<circle cx="14.4268" cy="14.4268" r="14.4268" fill="url(#paint1_linear)"/>
<circle cx="88.5411" cy="14.4268" r="14.4268" fill="url(#paint2_linear)"/>
<path d="M131.22 88C130.713 88 130.257 87.8227 129.852 87.468C129.497 87.0627 129.32 86.6067 129.32 86.1V36.7C129.32 36.1427 129.497 35.6867 129.852 35.332C130.257 34.9773 130.713 34.8 131.22 34.8H139.276C140.543 34.8 141.404 35.2813 141.86 36.244L160.404 65.428V36.7C160.404 36.1427 160.581 35.6867 160.936 35.332C161.341 34.9773 161.797 34.8 162.304 34.8H171.424C171.981 34.8 172.437 34.9773 172.792 35.332C173.147 35.6867 173.324 36.1427 173.324 36.7V86.024C173.324 86.5813 173.147 87.0627 172.792 87.468C172.437 87.8227 171.981 88 171.424 88H163.292C162.177 88 161.341 87.5187 160.784 86.556L142.24 58.436V86.1C142.24 86.6067 142.063 87.0627 141.708 87.468C141.353 87.8227 140.897 88 140.34 88H131.22ZM189.645 88C189.138 88 188.682 87.8227 188.277 87.468C187.922 87.0627 187.745 86.6067 187.745 86.1V36.7C187.745 36.1427 187.922 35.6867 188.277 35.332C188.682 34.9773 189.138 34.8 189.645 34.8H225.137C225.694 34.8 226.15 34.9773 226.505 35.332C226.86 35.6867 227.037 36.1427 227.037 36.7V43.844C227.037 44.3507 226.86 44.8067 226.505 45.212C226.15 45.5667 225.694 45.744 225.137 45.744H200.893V56.004H223.465C224.022 56.004 224.478 56.2067 224.833 56.612C225.188 56.9667 225.365 57.4227 225.365 57.98V64.592C225.365 65.0987 225.188 65.5547 224.833 65.96C224.478 66.3147 224.022 66.492 223.465 66.492H200.893V77.056H225.745C226.302 77.056 226.758 77.2333 227.113 77.588C227.468 77.9427 227.645 78.3987 227.645 78.956V86.1C227.645 86.6067 227.468 87.0627 227.113 87.468C226.758 87.8227 226.302 88 225.745 88H189.645ZM253.688 88C253.181 88 252.725 87.8227 252.32 87.468C251.965 87.0627 251.788 86.6067 251.788 86.1V46.732H238.26C237.753 46.732 237.297 46.5547 236.892 46.2C236.537 45.7947 236.36 45.3387 236.36 44.832V36.7C236.36 36.1427 236.537 35.6867 236.892 35.332C237.297 34.9773 237.753 34.8 238.26 34.8H279.148C279.705 34.8 280.161 34.9773 280.516 35.332C280.871 35.6867 281.048 36.1427 281.048 36.7V44.832C281.048 45.3893 280.871 45.8453 280.516 46.2C280.161 46.5547 279.705 46.732 279.148 46.732H265.62V86.1C265.62 86.6067 265.443 87.0627 265.088 87.468C264.733 87.8227 264.277 88 263.72 88H253.688ZM300.267 88C299.406 88 298.722 87.772 298.215 87.316C297.708 86.8093 297.404 86.2013 297.303 85.492L289.019 36.928C288.968 36.776 288.943 36.5987 288.943 36.396C288.943 35.9907 289.095 35.636 289.399 35.332C289.754 34.9773 290.134 34.8 290.539 34.8H299.963C301.382 34.8 302.167 35.3573 302.319 36.472L307.259 66.112L312.731 48.632C313.288 47.264 314.124 46.58 315.239 46.58H320.711C321.978 46.58 322.814 47.264 323.219 48.632L328.691 66.112L333.631 36.472C333.783 35.3573 334.568 34.8 335.987 34.8H345.411C345.867 34.8 346.247 34.9773 346.551 35.332C346.906 35.636 347.083 35.9907 347.083 36.396L347.007 36.928L338.723 85.492C338.622 86.2013 338.292 86.8093 337.735 87.316C337.228 87.772 336.57 88 335.759 88H328.539C327.728 88 327.095 87.7973 326.639 87.392C326.183 86.9867 325.854 86.5307 325.651 86.024L317.975 64.288L310.299 86.024C309.843 87.3413 308.906 88 307.487 88H300.267ZM379.858 88.76C372.714 88.76 367.09 87.012 362.986 83.516C358.882 80.02 356.703 74.8773 356.45 68.088C356.399 66.6187 356.374 64.44 356.374 61.552C356.374 58.6133 356.399 56.4093 356.45 54.94C356.703 48.252 358.907 43.1093 363.062 39.512C367.267 35.864 372.866 34.04 379.858 34.04C386.85 34.04 392.448 35.864 396.654 39.512C400.859 43.1093 403.063 48.252 403.266 54.94C403.367 57.8787 403.418 60.0827 403.418 61.552C403.418 62.9707 403.367 65.1493 403.266 68.088C403.012 74.8773 400.834 80.02 396.73 83.516C392.626 87.012 387.002 88.76 379.858 88.76ZM379.858 77.816C382.644 77.816 384.848 76.98 386.47 75.308C388.142 73.636 389.028 71.0773 389.13 67.632C389.231 64.6933 389.282 62.616 389.282 61.4C389.282 60.0827 389.231 58.0053 389.13 55.168C389.028 51.7227 388.142 49.164 386.47 47.492C384.798 45.82 382.594 44.984 379.858 44.984C377.122 44.984 374.918 45.82 373.246 47.492C371.624 49.164 370.738 51.7227 370.586 55.168C370.535 56.5867 370.51 58.664 370.51 61.4C370.51 64.0853 370.535 66.1627 370.586 67.632C370.738 71.0773 371.624 73.636 373.246 75.308C374.867 76.98 377.071 77.816 379.858 77.816ZM417.927 88C417.42 88 416.964 87.8227 416.559 87.468C416.204 87.0627 416.027 86.6067 416.027 86.1V36.7C416.027 36.1427 416.204 35.6867 416.559 35.332C416.964 34.9773 417.42 34.8 417.927 34.8H427.503C428.06 34.8 428.516 34.9773 428.871 35.332C429.226 35.6867 429.403 36.1427 429.403 36.7V53.572L443.463 36.244C444.071 35.2813 445.059 34.8 446.427 34.8H457.371C457.827 34.8 458.207 34.9773 458.511 35.332C458.815 35.636 458.967 35.9907 458.967 36.396C458.967 36.7507 458.891 37.0547 458.739 37.308L440.499 60.26L460.107 85.492C460.31 85.6947 460.411 85.9987 460.411 86.404C460.411 86.8093 460.259 87.1893 459.955 87.544C459.651 87.848 459.271 88 458.815 88H447.491C446.275 88 445.262 87.4933 444.451 86.48L429.403 67.708V86.1C429.403 86.6573 429.226 87.1133 428.871 87.468C428.516 87.8227 428.06 88 427.503 88H417.927Z" fill="url(#paint3_linear)"/>
<path d="M131.656 114C131.483 114 131.335 113.939 131.214 113.818C131.093 113.697 131.032 113.549 131.032 113.376V98.998H126.222C126.049 98.998 125.901 98.9373 125.78 98.816C125.659 98.6947 125.598 98.5473 125.598 98.374V96.45C125.598 96.2593 125.65 96.1033 125.754 95.982C125.875 95.8607 126.031 95.8 126.222 95.8H139.482C139.673 95.8 139.829 95.8607 139.95 95.982C140.071 96.1033 140.132 96.2593 140.132 96.45V98.374C140.132 98.5473 140.071 98.6947 139.95 98.816C139.829 98.9373 139.673 98.998 139.482 98.998H134.698V113.376C134.698 113.549 134.637 113.697 134.516 113.818C134.395 113.939 134.239 114 134.048 114H131.656ZM144.694 114C144.521 114 144.374 113.939 144.252 113.818C144.131 113.697 144.07 113.549 144.07 113.376V96.45C144.07 96.2593 144.122 96.1033 144.226 95.982C144.348 95.8607 144.504 95.8 144.694 95.8H147.06C147.251 95.8 147.398 95.8607 147.502 95.982C147.624 96.1033 147.684 96.2593 147.684 96.45V103.158H155.354V96.45C155.354 96.2593 155.406 96.1033 155.51 95.982C155.632 95.8607 155.788 95.8 155.978 95.8H158.318C158.509 95.8 158.665 95.8607 158.786 95.982C158.908 96.1033 158.968 96.2593 158.968 96.45V113.376C158.968 113.567 158.908 113.723 158.786 113.844C158.665 113.948 158.509 114 158.318 114H155.978C155.805 114 155.658 113.939 155.536 113.818C155.415 113.697 155.354 113.549 155.354 113.376V106.408H147.684V113.376C147.684 113.549 147.624 113.697 147.502 113.818C147.398 113.939 147.251 114 147.06 114H144.694ZM164.936 114C164.762 114 164.615 113.939 164.494 113.818C164.372 113.697 164.312 113.549 164.312 113.376V96.45C164.312 96.2593 164.364 96.1033 164.468 95.982C164.589 95.8607 164.745 95.8 164.936 95.8H176.376C176.566 95.8 176.722 95.8607 176.844 95.982C176.965 96.1033 177.026 96.2593 177.026 96.45V98.166C177.026 98.3567 176.965 98.5127 176.844 98.634C176.722 98.738 176.566 98.79 176.376 98.79H167.822V103.392H175.804C175.994 103.392 176.15 103.453 176.272 103.574C176.393 103.678 176.454 103.825 176.454 104.016V105.628C176.454 105.819 176.393 105.975 176.272 106.096C176.15 106.2 175.994 106.252 175.804 106.252H167.822V111.01H176.584C176.774 111.01 176.93 111.071 177.052 111.192C177.173 111.313 177.234 111.469 177.234 111.66V113.376C177.234 113.567 177.173 113.723 177.052 113.844C176.93 113.948 176.774 114 176.584 114H164.936ZM189.651 114C189.477 114 189.33 113.939 189.209 113.818C189.087 113.697 189.027 113.549 189.027 113.376V96.45C189.027 96.2593 189.079 96.1033 189.183 95.982C189.304 95.8607 189.46 95.8 189.651 95.8H196.385C198.499 95.8 200.155 96.294 201.351 97.282C202.564 98.27 203.171 99.674 203.171 101.494C203.171 102.759 202.859 103.825 202.235 104.692C201.628 105.541 200.779 106.157 199.687 106.538L203.483 113.168C203.535 113.272 203.561 113.367 203.561 113.454C203.561 113.61 203.5 113.74 203.379 113.844C203.275 113.948 203.153 114 203.015 114H200.649C200.371 114 200.155 113.939 199.999 113.818C199.86 113.697 199.73 113.523 199.609 113.298L196.255 107.136H192.641V113.376C192.641 113.549 192.58 113.697 192.459 113.818C192.355 113.939 192.207 114 192.017 114H189.651ZM196.307 104.198C197.347 104.198 198.127 103.964 198.647 103.496C199.184 103.028 199.453 102.352 199.453 101.468C199.453 100.584 199.184 99.8993 198.647 99.414C198.127 98.9287 197.347 98.686 196.307 98.686H192.641V104.198H196.307ZM208.445 114C208.272 114 208.124 113.939 208.003 113.818C207.882 113.697 207.821 113.549 207.821 113.376V96.45C207.821 96.2593 207.873 96.1033 207.977 95.982C208.098 95.8607 208.254 95.8 208.445 95.8H219.885C220.076 95.8 220.232 95.8607 220.353 95.982C220.474 96.1033 220.535 96.2593 220.535 96.45V98.166C220.535 98.3567 220.474 98.5127 220.353 98.634C220.232 98.738 220.076 98.79 219.885 98.79H211.331V103.392H219.313C219.504 103.392 219.66 103.453 219.781 103.574C219.902 103.678 219.963 103.825 219.963 104.016V105.628C219.963 105.819 219.902 105.975 219.781 106.096C219.66 106.2 219.504 106.252 219.313 106.252H211.331V111.01H220.093C220.284 111.01 220.44 111.071 220.561 111.192C220.682 111.313 220.743 111.469 220.743 111.66V113.376C220.743 113.567 220.682 113.723 220.561 113.844C220.44 113.948 220.284 114 220.093 114H208.445ZM224.177 114C224.038 114 223.908 113.948 223.787 113.844C223.683 113.74 223.631 113.61 223.631 113.454L223.683 113.22L229.949 96.45C230.07 96.0167 230.373 95.8 230.859 95.8H233.693C234.143 95.8 234.447 96.0167 234.603 96.45L240.869 113.22C240.886 113.272 240.895 113.35 240.895 113.454C240.895 113.61 240.843 113.74 240.739 113.844C240.635 113.948 240.513 114 240.375 114H238.113C237.887 114 237.714 113.948 237.593 113.844C237.471 113.74 237.393 113.627 237.359 113.506L236.137 110.334H228.415L227.193 113.506C227.054 113.835 226.803 114 226.439 114H224.177ZM235.227 107.344L232.263 99.31L229.325 107.344H235.227ZM245.246 114C245.073 114 244.925 113.939 244.804 113.818C244.683 113.697 244.622 113.549 244.622 113.376V96.424C244.622 96.2333 244.683 96.086 244.804 95.982C244.925 95.8607 245.073 95.8 245.246 95.8H247.664C247.855 95.8 248.002 95.8607 248.106 95.982C248.227 96.086 248.288 96.2333 248.288 96.424V110.906H256.53C256.721 110.906 256.877 110.967 256.998 111.088C257.119 111.209 257.18 111.365 257.18 111.556V113.376C257.18 113.567 257.119 113.723 256.998 113.844C256.877 113.948 256.721 114 256.53 114H245.246ZM274.605 114.26C272.213 114.26 270.359 113.645 269.041 112.414C267.741 111.183 267.048 109.45 266.961 107.214C266.944 106.746 266.935 105.983 266.935 104.926C266.935 103.851 266.944 103.071 266.961 102.586C267.048 100.367 267.75 98.6427 269.067 97.412C270.402 96.164 272.248 95.54 274.605 95.54C276.148 95.54 277.491 95.8087 278.635 96.346C279.779 96.866 280.663 97.5853 281.287 98.504C281.911 99.4053 282.241 100.428 282.275 101.572V101.624C282.275 101.763 282.215 101.884 282.093 101.988C281.989 102.075 281.868 102.118 281.729 102.118H279.259C279.051 102.118 278.895 102.075 278.791 101.988C278.687 101.901 278.601 101.737 278.531 101.494C278.254 100.402 277.795 99.6393 277.153 99.206C276.512 98.7553 275.654 98.53 274.579 98.53C272.083 98.53 270.783 99.9253 270.679 102.716C270.662 103.184 270.653 103.903 270.653 104.874C270.653 105.845 270.662 106.581 270.679 107.084C270.783 109.875 272.083 111.27 274.579 111.27C275.654 111.27 276.512 111.045 277.153 110.594C277.812 110.143 278.271 109.381 278.531 108.306C278.583 108.063 278.661 107.899 278.765 107.812C278.887 107.725 279.051 107.682 279.259 107.682H281.729C281.885 107.682 282.015 107.734 282.119 107.838C282.241 107.942 282.293 108.072 282.275 108.228C282.241 109.372 281.911 110.403 281.287 111.322C280.663 112.223 279.779 112.943 278.635 113.48C277.491 114 276.148 114.26 274.605 114.26ZM293.653 114.26C291.296 114.26 289.458 113.662 288.141 112.466C286.824 111.27 286.13 109.493 286.061 107.136C286.044 106.633 286.035 105.897 286.035 104.926C286.035 103.938 286.044 103.193 286.061 102.69C286.13 100.385 286.841 98.6167 288.193 97.386C289.545 96.1553 291.365 95.54 293.653 95.54C295.941 95.54 297.761 96.1553 299.113 97.386C300.482 98.6167 301.202 100.385 301.271 102.69C301.306 103.695 301.323 104.441 301.323 104.926C301.323 105.394 301.306 106.131 301.271 107.136C301.184 109.493 300.482 111.27 299.165 112.466C297.848 113.662 296.01 114.26 293.653 114.26ZM293.653 111.27C294.814 111.27 295.742 110.923 296.435 110.23C297.128 109.519 297.501 108.445 297.553 107.006C297.588 105.966 297.605 105.264 297.605 104.9C297.605 104.501 297.588 103.799 297.553 102.794C297.501 101.355 297.128 100.289 296.435 99.596C295.742 98.8853 294.814 98.53 293.653 98.53C292.509 98.53 291.59 98.8853 290.897 99.596C290.204 100.289 289.831 101.355 289.779 102.794C289.762 103.297 289.753 103.999 289.753 104.9C289.753 105.784 289.762 106.486 289.779 107.006C289.831 108.445 290.195 109.519 290.871 110.23C291.564 110.923 292.492 111.27 293.653 111.27ZM306.661 114C306.488 114 306.34 113.939 306.219 113.818C306.098 113.697 306.037 113.549 306.037 113.376V96.45C306.037 96.2593 306.089 96.1033 306.193 95.982C306.314 95.8607 306.47 95.8 306.661 95.8H308.663C308.871 95.8 309.027 95.8433 309.131 95.93C309.235 95.9993 309.33 96.0947 309.417 96.216L316.905 107.864V96.45C316.905 96.2593 316.957 96.1033 317.061 95.982C317.182 95.8607 317.338 95.8 317.529 95.8H319.713C319.904 95.8 320.06 95.8607 320.181 95.982C320.302 96.1033 320.363 96.2593 320.363 96.45V113.35C320.363 113.541 320.302 113.697 320.181 113.818C320.06 113.939 319.912 114 319.739 114H317.711C317.416 114 317.165 113.861 316.957 113.584L309.495 102.196V113.376C309.495 113.567 309.434 113.723 309.313 113.844C309.192 113.948 309.036 114 308.845 114H306.661ZM326.344 114C326.17 114 326.023 113.939 325.902 113.818C325.78 113.697 325.72 113.549 325.72 113.376V96.45C325.72 96.2593 325.772 96.1033 325.876 95.982C325.997 95.8607 326.153 95.8 326.344 95.8H328.346C328.554 95.8 328.71 95.8433 328.814 95.93C328.918 95.9993 329.013 96.0947 329.1 96.216L336.588 107.864V96.45C336.588 96.2593 336.64 96.1033 336.744 95.982C336.865 95.8607 337.021 95.8 337.212 95.8H339.396C339.586 95.8 339.742 95.8607 339.864 95.982C339.985 96.1033 340.046 96.2593 340.046 96.45V113.35C340.046 113.541 339.985 113.697 339.864 113.818C339.742 113.939 339.595 114 339.422 114H337.394C337.099 114 336.848 113.861 336.64 113.584L329.178 102.196V113.376C329.178 113.567 329.117 113.723 328.996 113.844C328.874 113.948 328.718 114 328.528 114H326.344ZM346.027 114C345.853 114 345.706 113.939 345.585 113.818C345.463 113.697 345.403 113.549 345.403 113.376V96.45C345.403 96.2593 345.455 96.1033 345.559 95.982C345.68 95.8607 345.836 95.8 346.027 95.8H357.467C357.657 95.8 357.813 95.8607 357.935 95.982C358.056 96.1033 358.117 96.2593 358.117 96.45V98.166C358.117 98.3567 358.056 98.5127 357.935 98.634C357.813 98.738 357.657 98.79 357.467 98.79H348.913V103.392H356.895C357.085 103.392 357.241 103.453 357.363 103.574C357.484 103.678 357.545 103.825 357.545 104.016V105.628C357.545 105.819 357.484 105.975 357.363 106.096C357.241 106.2 357.085 106.252 356.895 106.252H348.913V111.01H357.675C357.865 111.01 358.021 111.071 358.143 111.192C358.264 111.313 358.325 111.469 358.325 111.66V113.376C358.325 113.567 358.264 113.723 358.143 113.844C358.021 113.948 357.865 114 357.675 114H346.027ZM369.744 114.26C367.352 114.26 365.497 113.645 364.18 112.414C362.88 111.183 362.187 109.45 362.1 107.214C362.083 106.746 362.074 105.983 362.074 104.926C362.074 103.851 362.083 103.071 362.1 102.586C362.187 100.367 362.889 98.6427 364.206 97.412C365.541 96.164 367.387 95.54 369.744 95.54C371.287 95.54 372.63 95.8087 373.774 96.346C374.918 96.866 375.802 97.5853 376.426 98.504C377.05 99.4053 377.379 100.428 377.414 101.572V101.624C377.414 101.763 377.353 101.884 377.232 101.988C377.128 102.075 377.007 102.118 376.868 102.118H374.398C374.19 102.118 374.034 102.075 373.93 101.988C373.826 101.901 373.739 101.737 373.67 101.494C373.393 100.402 372.933 99.6393 372.292 99.206C371.651 98.7553 370.793 98.53 369.718 98.53C367.222 98.53 365.922 99.9253 365.818 102.716C365.801 103.184 365.792 103.903 365.792 104.874C365.792 105.845 365.801 106.581 365.818 107.084C365.922 109.875 367.222 111.27 369.718 111.27C370.793 111.27 371.651 111.045 372.292 110.594C372.951 110.143 373.41 109.381 373.67 108.306C373.722 108.063 373.8 107.899 373.904 107.812C374.025 107.725 374.19 107.682 374.398 107.682H376.868C377.024 107.682 377.154 107.734 377.258 107.838C377.379 107.942 377.431 108.072 377.414 108.228C377.379 109.372 377.05 110.403 376.426 111.322C375.802 112.223 374.918 112.943 373.774 113.48C372.63 114 371.287 114.26 369.744 114.26ZM386.426 114C386.252 114 386.105 113.939 385.984 113.818C385.862 113.697 385.802 113.549 385.802 113.376V98.998H380.992C380.818 98.998 380.671 98.9373 380.55 98.816C380.428 98.6947 380.368 98.5473 380.368 98.374V96.45C380.368 96.2593 380.42 96.1033 380.524 95.982C380.645 95.8607 380.801 95.8 380.992 95.8H394.252C394.442 95.8 394.598 95.8607 394.72 95.982C394.841 96.1033 394.902 96.2593 394.902 96.45V98.374C394.902 98.5473 394.841 98.6947 394.72 98.816C394.598 98.9373 394.442 98.998 394.252 98.998H389.468V113.376C389.468 113.549 389.407 113.697 389.286 113.818C389.164 113.939 389.008 114 388.818 114H386.426ZM399.464 114C399.29 114 399.143 113.939 399.022 113.818C398.9 113.697 398.84 113.549 398.84 113.376V96.424C398.84 96.2333 398.9 96.086 399.022 95.982C399.143 95.8607 399.29 95.8 399.464 95.8H401.908C402.098 95.8 402.246 95.8607 402.35 95.982C402.471 96.086 402.532 96.2333 402.532 96.424V113.376C402.532 113.549 402.471 113.697 402.35 113.818C402.246 113.939 402.098 114 401.908 114H399.464ZM414.903 114.26C412.546 114.26 410.709 113.662 409.391 112.466C408.074 111.27 407.381 109.493 407.311 107.136C407.294 106.633 407.285 105.897 407.285 104.926C407.285 103.938 407.294 103.193 407.311 102.69C407.381 100.385 408.091 98.6167 409.443 97.386C410.795 96.1553 412.615 95.54 414.903 95.54C417.191 95.54 419.011 96.1553 420.363 97.386C421.733 98.6167 422.452 100.385 422.521 102.69C422.556 103.695 422.573 104.441 422.573 104.926C422.573 105.394 422.556 106.131 422.521 107.136C422.435 109.493 421.733 111.27 420.415 112.466C419.098 113.662 417.261 114.26 414.903 114.26ZM414.903 111.27C416.065 111.27 416.992 110.923 417.685 110.23C418.379 109.519 418.751 108.445 418.803 107.006C418.838 105.966 418.855 105.264 418.855 104.9C418.855 104.501 418.838 103.799 418.803 102.794C418.751 101.355 418.379 100.289 417.685 99.596C416.992 98.8853 416.065 98.53 414.903 98.53C413.759 98.53 412.841 98.8853 412.147 99.596C411.454 100.289 411.081 101.355 411.029 102.794C411.012 103.297 411.003 103.999 411.003 104.9C411.003 105.784 411.012 106.486 411.029 107.006C411.081 108.445 411.445 109.519 412.121 110.23C412.815 110.923 413.742 111.27 414.903 111.27ZM427.911 114C427.738 114 427.591 113.939 427.469 113.818C427.348 113.697 427.287 113.549 427.287 113.376V96.45C427.287 96.2593 427.339 96.1033 427.443 95.982C427.565 95.8607 427.721 95.8 427.911 95.8H429.913C430.121 95.8 430.277 95.8433 430.381 95.93C430.485 95.9993 430.581 96.0947 430.667 96.216L438.155 107.864V96.45C438.155 96.2593 438.207 96.1033 438.311 95.982C438.433 95.8607 438.589 95.8 438.779 95.8H440.963C441.154 95.8 441.31 95.8607 441.431 95.982C441.553 96.1033 441.613 96.2593 441.613 96.45V113.35C441.613 113.541 441.553 113.697 441.431 113.818C441.31 113.939 441.163 114 440.989 114H438.961C438.667 114 438.415 113.861 438.207 113.584L430.745 102.196V113.376C430.745 113.567 430.685 113.723 430.563 113.844C430.442 113.948 430.286 114 430.095 114H427.911ZM453.288 114.26C451.746 114.26 450.42 114.026 449.31 113.558C448.201 113.09 447.36 112.475 446.788 111.712C446.216 110.949 445.913 110.126 445.878 109.242C445.878 109.086 445.93 108.956 446.034 108.852C446.138 108.748 446.268 108.696 446.424 108.696H448.738C448.946 108.696 449.102 108.739 449.206 108.826C449.328 108.895 449.44 109.017 449.544 109.19C449.718 109.779 450.116 110.273 450.74 110.672C451.364 111.071 452.214 111.27 453.288 111.27C454.519 111.27 455.446 111.071 456.07 110.672C456.694 110.256 457.006 109.684 457.006 108.956C457.006 108.471 456.842 108.072 456.512 107.76C456.2 107.448 455.724 107.179 455.082 106.954C454.458 106.729 453.522 106.451 452.274 106.122C450.229 105.637 448.73 104.995 447.776 104.198C446.84 103.383 446.372 102.231 446.372 100.74C446.372 99.7347 446.641 98.842 447.178 98.062C447.733 97.282 448.522 96.6667 449.544 96.216C450.584 95.7653 451.789 95.54 453.158 95.54C454.58 95.54 455.81 95.7913 456.85 96.294C457.89 96.7967 458.679 97.4293 459.216 98.192C459.771 98.9373 460.066 99.6827 460.1 100.428C460.1 100.584 460.048 100.714 459.944 100.818C459.84 100.922 459.71 100.974 459.554 100.974H457.136C456.772 100.974 456.521 100.809 456.382 100.48C456.278 99.9253 455.932 99.466 455.342 99.102C454.753 98.7207 454.025 98.53 453.158 98.53C452.188 98.53 451.425 98.712 450.87 99.076C450.316 99.44 450.038 99.9687 450.038 100.662C450.038 101.147 450.177 101.546 450.454 101.858C450.732 102.17 451.165 102.447 451.754 102.69C452.361 102.933 453.228 103.201 454.354 103.496C455.88 103.843 457.093 104.233 457.994 104.666C458.913 105.099 459.589 105.645 460.022 106.304C460.456 106.963 460.672 107.803 460.672 108.826C460.672 109.935 460.36 110.906 459.736 111.738C459.13 112.553 458.263 113.177 457.136 113.61C456.027 114.043 454.744 114.26 453.288 114.26Z" fill="url(#paint4_linear)"/>
<defs>
<linearGradient id="paint0_linear" x1="52.1911" y1="34.7939" x2="52.1911" y2="114" gradientUnits="userSpaceOnUse">
<stop stop-color="#F7446A"/>
<stop offset="1" stop-color="#291B81"/>
</linearGradient>
<linearGradient id="paint1_linear" x1="14.4268" y1="0" x2="14.4268" y2="28.8536" gradientUnits="userSpaceOnUse">
<stop stop-color="#F7446A"/>
<stop offset="1" stop-color="#291B81"/>
</linearGradient>
<linearGradient id="paint2_linear" x1="88.5411" y1="0" x2="88.5411" y2="28.8536" gradientUnits="userSpaceOnUse">
<stop stop-color="#F7446A"/>
<stop offset="1" stop-color="#291B81"/>
</linearGradient>
<linearGradient id="paint3_linear" x1="293" y1="17" x2="293" y2="107" gradientUnits="userSpaceOnUse">
<stop stop-color="#F7446A"/>
<stop offset="1" stop-color="#291B81"/>
</linearGradient>
<linearGradient id="paint4_linear" x1="293.5" y1="90" x2="293.5" y2="121" gradientUnits="userSpaceOnUse">
<stop stop-color="#F7446A"/>
<stop offset="1" stop-color="#291B81"/>
</linearGradient>
</defs>
</svg>
